<?xml version="1.0" encoding="UTF-8" standalone="no"?>
<svg width="100%" height="100%" viewBox="0 0 297 253" version="1.1" xmlns="http://www.w3.org/2000/svg" xml:space="preserve" shape-rendering="crispEdges">
    <style>
        .a, .b {
            transform-box: fill-box;
            transform-origin: center;
            opacity: 0;
        }

        .a { animation: drawA 12s ease-out infinite; }
        .b { animation: drawB 12s ease-out infinite; }

        @keyframes drawA {
            0%   { opacity: 0; scale: 0.2; }
            3%   { opacity: 1; scale: 1.25; }
            6%   { scale: 1; }
            30%  { opacity: 1; }
            33%  { opacity: 0; }
            100% { opacity: 0; }
        }

        @keyframes drawB {
            0%, 50% { opacity: 0; scale: 0.2; }
            53%     { opacity: 1; scale: 1.25; }
            56%     { scale: 1; }
            80%     { opacity: 1; }
            83%     { opacity: 0; }
            100%    { opacity: 0; }
        }

        .hand {
            transform-box: fill-box;
            transform-origin: center;
            animation: sweep 12s linear infinite;
        }

        @keyframes sweep {
            0%   { transform: rotate(0deg);   opacity: 0; }
            3%   { transform: rotate(0deg);   opacity: 0.9; }
            23%  { transform: rotate(360deg); opacity: 0.9; }
            27%  { transform: rotate(360deg); opacity: 0; }
            50%  { transform: rotate(360deg); opacity: 0; }
            53%  { transform: rotate(360deg); opacity: 0.9; }
            73%  { transform: rotate(720deg); opacity: 0.9; }
            77%  { transform: rotate(720deg); opacity: 0; }
            100% { transform: rotate(720deg); opacity: 0; }
        }

        .core { animation: pulse 3s ease-in-out infinite; }

        @keyframes pulse {
            0%, 100% { opacity: 0.6; }
            50%      { opacity: 1; }
        }

        @media (prefers-reduced-motion: reduce) {
            .b, .hand, .core { animation: none; }
            .a { animation: none; opacity: 1; }
        }
    </style>
    <g id="grid" opacity="0.07">
        <rect x="0" y="0" width="1" height="253" fill="#67e8f9"/>
        <rect x="11" y="0" width="1" height="253" fill="#67e8f9"/>
        <rect x="22" y="0" width="1" height="253" fill="#67e8f9"/>
        <rect x="33" y="0" width="1" height="253" fill="#67e8f9"/>
        <rect x="44" y="0" width="1" height="253" fill="#67e8f9"/>
        <rect x="55" y="0" width="1" height="253" fill="#67e8f9"/>
        <rect x="66" y="0" width="1" height="253" fill="#67e8f9"/>
        <rect x="77" y="0" width="1" height="253" fill="#67e8f9"/>
        <rect x="88" y="0" width="1" height="253" fill="#67e8f9"/>
        <rect x="99" y="0" width="1" height="253" fill="#67e8f9"/>
        <rect x="110" y="0" width="1" height="253" fill="#67e8f9"/>
        <rect x="121" y="0" width="1" height="253" fill="#67e8f9"/>
        <rect x="132" y="0" width="1" height="253" fill="#67e8f9"/>
        <rect x="143" y="0" width="1" height="253" fill="#67e8f9"/>
        <rect x="154" y="0" width="1" height="253" fill="#67e8f9"/>
        <rect x="165" y="0" width="1" height="253" fill="#67e8f9"/>
        <rect x="176" y="0" width="1" height="253" fill="#67e8f9"/>
        <rect x="187" y="0" width="1" height="253" fill="#67e8f9"/>
        <rect x="198" y="0" width="1" height="253" fill="#67e8f9"/>
        <rect x="209" y="0" width="1" height="253" fill="#67e8f9"/>
        <rect x="220" y="0" width="1" height="253" fill="#67e8f9"/>
        <rect x="231" y="0" width="1" height="253" fill="#67e8f9"/>
        <rect x="242" y="0" width="1" height="253" fill="#67e8f9"/>
        <rect x="253" y="0" width="1" height="253" fill="#67e8f9"/>
        <rect x="264" y="0" width="1" height="253" fill="#67e8f9"/>
        <rect x="275" y="0" width="1" height="253" fill="#67e8f9"/>
        <rect x="286" y="0" width="1" height="253" fill="#67e8f9"/>
        <rect x="297" y="0" width="1" height="253" fill="#67e8f9"/>
        <rect x="0" y="0" width="297" height="1" fill="#67e8f9"/>
        <rect x="0" y="11" width="297" height="1" fill="#67e8f9"/>
        <rect x="0" y="22" width="297" height="1" fill="#67e8f9"/>
        <rect x="0" y="33" width="297" height="1" fill="#67e8f9"/>
        <rect x="0" y="44" width="297" height="1" fill="#67e8f9"/>
        <rect x="0" y="55" width="297" height="1" fill="#67e8f9"/>
        <rect x="0" y="66" width="297" height="1" fill="#67e8f9"/>
        <rect x="0" y="77" width="297" height="1" fill="#67e8f9"/>
        <rect x="0" y="88" width="297" height="1" fill="#67e8f9"/>
        <rect x="0" y="99" width="297" height="1" fill="#67e8f9"/>
        <rect x="0" y="110" width="297" height="1" fill="#67e8f9"/>
        <rect x="0" y="121" width="297" height="1" fill="#67e8f9"/>
        <rect x="0" y="132" width="297" height="1" fill="#67e8f9"/>
        <rect x="0" y="143" width="297" height="1" fill="#67e8f9"/>
        <rect x="0" y="154" width="297" height="1" fill="#67e8f9"/>
        <rect x="0" y="165" width="297" height="1" fill="#67e8f9"/>
        <rect x="0" y="176" width="297" height="1" fill="#67e8f9"/>
        <rect x="0" y="187" width="297" height="1" fill="#67e8f9"/>
        <rect x="0" y="198" width="297" height="1" fill="#67e8f9"/>
        <rect x="0" y="209" width="297" height="1" fill="#67e8f9"/>
        <rect x="0" y="220" width="297" height="1" fill="#67e8f9"/>
        <rect x="0" y="231" width="297" height="1" fill="#67e8f9"/>
        <rect x="0" y="242" width="297" height="1" fill="#67e8f9"/>
        <rect x="0" y="253" width="297" height="1" fill="#67e8f9"/>
    </g>
    <g id="axes" opacity="0.16">
        <rect x="143" y="0" width="11" height="253" fill="#fbbf24"/>
        <rect x="0" y="121" width="297" height="11" fill="#fbbf24"/>
    </g>
    <g class="a" style="animation-delay:0.00s"><rect x="143" y="33" width="11" height="11" fill="#22d3ee"/><rect x="143" y="33" width="11" height="3" fill="#67e8f9"/><rect x="143" y="41" width="11" height="3" fill="#0e7490"/></g>
    <g class="a" style="animation-delay:0.05s"><rect x="154" y="33" width="11" height="11" fill="#22d3ee"/><rect x="154" y="33" width="11" height="3" fill="#67e8f9"/><rect x="154" y="41" width="11" height="3" fill="#0e7490"/></g>
    <g class="a" style="animation-delay:0.10s"><rect x="165" y="33" width="11" height="11" fill="#22d3ee"/><rect x="165" y="33" width="11" height="3" fill="#67e8f9"/><rect x="165" y="41" width="11" height="3" fill="#0e7490"/></g>
    <g class="a" style="animation-delay:0.15s"><rect x="176" y="44" width="11" height="11" fill="#22d3ee"/><rect x="176" y="44" width="11" height="3" fill="#67e8f9"/><rect x="176" y="52" width="11" height="3" fill="#0e7490"/></g>
    <g class="a" style="animation-delay:0.20s"><rect x="187" y="44" width="11" height="11" fill="#22d3ee"/><rect x="187" y="44" width="11" height="3" fill="#67e8f9"/><rect x="187" y="52" width="11" height="3" fill="#0e7490"/></g>
    <g class="a" style="animation-delay:0.25s"><rect x="198" y="55" width="11" height="11" fill="#22d3ee"/><rect x="198" y="55" width="11" height="3" fill="#67e8f9"/><rect x="198" y="63" width="11" height="3" fill="#0e7490"/></g>
    <g class="a" style="animation-delay:0.30s"><rect x="209" y="55" width="11" height="11" fill="#22d3ee"/><rect x="209" y="55" width="11" height="3" fill="#67e8f9"/><rect x="209" y="63" width="11" height="3" fill="#0e7490"/></g>
    <g class="a" style="animation-delay:0.35s"><rect x="209" y="66" width="11" height="11" fill="#22d3ee"/><rect x="209" y="66" width="11" height="3" fill="#67e8f9"/><rect x="209" y="74" width="11" height="3" fill="#0e7490"/></g>
    <g class="a" style="animation-delay:0.40s"><rect x="220" y="77" width="11" height="11" fill="#22d3ee"/><rect x="220" y="77" width="11" height="3" fill="#67e8f9"/><rect x="220" y="85" width="11" height="3" fill="#0e7490"/></g>
    <g class="a" style="animation-delay:0.45s"><rect x="220" y="88" width="11" height="11" fill="#22d3ee"/><rect x="220" y="88" width="11" height="3" fill="#67e8f9"/><rect x="220" y="96" width="11" height="3" fill="#0e7490"/></g>
    <g class="a" style="animation-delay:0.50s"><rect x="231" y="99" width="11" height="11" fill="#22d3ee"/><rect x="231" y="99" width="11" height="3" fill="#67e8f9"/><rect x="231" y="107" width="11" height="3" fill="#0e7490"/></g>
    <g class="a" style="animation-delay:0.55s"><rect x="231" y="110" width="11" height="11" fill="#22d3ee"/><rect x="231" y="110" width="11" height="3" fill="#67e8f9"/><rect x="231" y="118" width="11" height="3" fill="#0e7490"/></g>
    <g class="a" style="animation-delay:0.60s"><rect x="231" y="121" width="11" height="11" fill="#22d3ee"/><rect x="231" y="121" width="11" height="3" fill="#67e8f9"/><rect x="231" y="129" width="11" height="3" fill="#0e7490"/></g>
    <g class="a" style="animation-delay:0.65s"><rect x="231" y="132" width="11" height="11" fill="#22d3ee"/><rect x="231" y="132" width="11" height="3" fill="#67e8f9"/><rect x="231" y="140" width="11" height="3" fill="#0e7490"/></g>
    <g class="a" style="animation-delay:0.70s"><rect x="231" y="143" width="11" height="11" fill="#22d3ee"/><rect x="231" y="143" width="11" height="3" fill="#67e8f9"/><rect x="231" y="151" width="11" height="3" fill="#0e7490"/></g>
    <g class="a" style="animation-delay:0.75s"><rect x="220" y="154" width="11" height="11" fill="#22d3ee"/><rect x="220" y="154" width="11" height="3" fill="#67e8f9"/><rect x="220" y="162" width="11" height="3" fill="#0e7490"/></g>
    <g class="a" style="animation-delay:0.80s"><rect x="220" y="165" width="11" height="11" fill="#22d3ee"/><rect x="220" y="165" width="11" height="3" fill="#67e8f9"/><rect x="220" y="173" width="11" height="3" fill="#0e7490"/></g>
    <g class="a" style="animation-delay:0.85s"><rect x="209" y="176" width="11" height="11" fill="#22d3ee"/><rect x="209" y="176" width="11" height="3" fill="#67e8f9"/><rect x="209" y="184" width="11" height="3" fill="#0e7490"/></g>
    <g class="a" style="animation-delay:0.90s"><rect x="209" y="187" width="11" height="11" fill="#22d3ee"/><rect x="209" y="187" width="11" height="3" fill="#67e8f9"/><rect x="209" y="195" width="11" height="3" fill="#0e7490"/></g>
    <g class="a" style="animation-delay:0.95s"><rect x="198" y="187" width="11" height="11" fill="#22d3ee"/><rect x="198" y="187" width="11" height="3" fill="#67e8f9"/><rect x="198" y="195" width="11" height="3" fill="#0e7490"/></g>
    <g class="a" style="animation-delay:1.00s"><rect x="187" y="198" width="11" height="11" fill="#22d3ee"/><rect x="187" y="198" width="11" height="3" fill="#67e8f9"/><rect x="187" y="206" width="11" height="3" fill="#0e7490"/></g>
    <g class="a" style="animation-delay:1.05s"><rect x="176" y="198" width="11" height="11" fill="#22d3ee"/><rect x="176" y="198" width="11" height="3" fill="#67e8f9"/><rect x="176" y="206" width="11" height="3" fill="#0e7490"/></g>
    <g class="a" style="animation-delay:1.10s"><rect x="165" y="209" width="11" height="11" fill="#22d3ee"/><rect x="165" y="209" width="11" height="3" fill="#67e8f9"/><rect x="165" y="217" width="11" height="3" fill="#0e7490"/></g>
    <g class="a" style="animation-delay:1.15s"><rect x="154" y="209" width="11" height="11" fill="#22d3ee"/><rect x="154" y="209" width="11" height="3" fill="#67e8f9"/><rect x="154" y="217" width="11" height="3" fill="#0e7490"/></g>
    <g class="a" style="animation-delay:1.20s"><rect x="143" y="209" width="11" height="11" fill="#22d3ee"/><rect x="143" y="209" width="11" height="3" fill="#67e8f9"/><rect x="143" y="217" width="11" height="3" fill="#0e7490"/></g>
    <g class="a" style="animation-delay:1.25s"><rect x="132" y="209" width="11" height="11" fill="#22d3ee"/><rect x="132" y="209" width="11" height="3" fill="#67e8f9"/><rect x="132" y="217" width="11" height="3" fill="#0e7490"/></g>
    <g class="a" style="animation-delay:1.30s"><rect x="121" y="209" width="11" height="11" fill="#22d3ee"/><rect x="121" y="209" width="11" height="3" fill="#67e8f9"/><rect x="121" y="217" width="11" height="3" fill="#0e7490"/></g>
    <g class="a" style="animation-delay:1.35s"><rect x="110" y="198" width="11" height="11" fill="#22d3ee"/><rect x="110" y="198" width="11" height="3" fill="#67e8f9"/><rect x="110" y="206" width="11" height="3" fill="#0e7490"/></g>
    <g class="a" style="animation-delay:1.40s"><rect x="99" y="198" width="11" height="11" fill="#22d3ee"/><rect x="99" y="198" width="11" height="3" fill="#67e8f9"/><rect x="99" y="206" width="11" height="3" fill="#0e7490"/></g>
    <g class="a" style="animation-delay:1.45s"><rect x="88" y="187" width="11" height="11" fill="#22d3ee"/><rect x="88" y="187" width="11" height="3" fill="#67e8f9"/><rect x="88" y="195" width="11" height="3" fill="#0e7490"/></g>
    <g class="a" style="animation-delay:1.50s"><rect x="77" y="187" width="11" height="11" fill="#22d3ee"/><rect x="77" y="187" width="11" height="3" fill="#67e8f9"/><rect x="77" y="195" width="11" height="3" fill="#0e7490"/></g>
    <g class="a" style="animation-delay:1.55s"><rect x="77" y="176" width="11" height="11" fill="#22d3ee"/><rect x="77" y="176" width="11" height="3" fill="#67e8f9"/><rect x="77" y="184" width="11" height="3" fill="#0e7490"/></g>
    <g class="a" style="animation-delay:1.60s"><rect x="66" y="165" width="11" height="11" fill="#22d3ee"/><rect x="66" y="165" width="11" height="3" fill="#67e8f9"/><rect x="66" y="173" width="11" height="3" fill="#0e7490"/></g>
    <g class="a" style="animation-delay:1.65s"><rect x="66" y="154" width="11" height="11" fill="#22d3ee"/><rect x="66" y="154" width="11" height="3" fill="#67e8f9"/><rect x="66" y="162" width="11" height="3" fill="#0e7490"/></g>
    <g class="a" style="animation-delay:1.70s"><rect x="55" y="143" width="11" height="11" fill="#22d3ee"/><rect x="55" y="143" width="11" height="3" fill="#67e8f9"/><rect x="55" y="151" width="11" height="3" fill="#0e7490"/></g>
    <g class="a" style="animation-delay:1.75s"><rect x="55" y="132" width="11" height="11" fill="#22d3ee"/><rect x="55" y="132" width="11" height="3" fill="#67e8f9"/><rect x="55" y="140" width="11" height="3" fill="#0e7490"/></g>
    <g class="a" style="animation-delay:1.80s"><rect x="55" y="121" width="11" height="11" fill="#22d3ee"/><rect x="55" y="121" width="11" height="3" fill="#67e8f9"/><rect x="55" y="129" width="11" height="3" fill="#0e7490"/></g>
    <g class="a" style="animation-delay:1.85s"><rect x="55" y="110" width="11" height="11" fill="#22d3ee"/><rect x="55" y="110" width="11" height="3" fill="#67e8f9"/><rect x="55" y="118" width="11" height="3" fill="#0e7490"/></g>
    <g class="a" style="animation-delay:1.90s"><rect x="55" y="99" width="11" height="11" fill="#22d3ee"/><rect x="55" y="99" width="11" height="3" fill="#67e8f9"/><rect x="55" y="107" width="11" height="3" fill="#0e7490"/></g>
    <g class="a" style="animation-delay:1.95s"><rect x="66" y="88" width="11" height="11" fill="#22d3ee"/><rect x="66" y="88" width="11" height="3" fill="#67e8f9"/><rect x="66" y="96" width="11" height="3" fill="#0e7490"/></g>
    <g class="a" style="animation-delay:2.00s"><rect x="66" y="77" width="11" height="11" fill="#22d3ee"/><rect x="66" y="77" width="11" height="3" fill="#67e8f9"/><rect x="66" y="85" width="11" height="3" fill="#0e7490"/></g>
    <g class="a" style="animation-delay:2.05s"><rect x="77" y="66" width="11" height="11" fill="#22d3ee"/><rect x="77" y="66" width="11" height="3" fill="#67e8f9"/><rect x="77" y="74" width="11" height="3" fill="#0e7490"/></g>
    <g class="a" style="animation-delay:2.10s"><rect x="77" y="55" width="11" height="11" fill="#22d3ee"/><rect x="77" y="55" width="11" height="3" fill="#67e8f9"/><rect x="77" y="63" width="11" height="3" fill="#0e7490"/></g>
    <g class="a" style="animation-delay:2.15s"><rect x="88" y="55" width="11" height="11" fill="#22d3ee"/><rect x="88" y="55" width="11" height="3" fill="#67e8f9"/><rect x="88" y="63" width="11" height="3" fill="#0e7490"/></g>
    <g class="a" style="animation-delay:2.20s"><rect x="99" y="44" width="11" height="11" fill="#22d3ee"/><rect x="99" y="44" width="11" height="3" fill="#67e8f9"/><rect x="99" y="52" width="11" height="3" fill="#0e7490"/></g>
    <g class="a" style="animation-delay:2.25s"><rect x="110" y="44" width="11" height="11" fill="#22d3ee"/><rect x="110" y="44" width="11" height="3" fill="#67e8f9"/><rect x="110" y="52" width="11" height="3" fill="#0e7490"/></g>
    <g class="a" style="animation-delay:2.30s"><rect x="121" y="33" width="11" height="11" fill="#22d3ee"/><rect x="121" y="33" width="11" height="3" fill="#67e8f9"/><rect x="121" y="41" width="11" height="3" fill="#0e7490"/></g>
    <g class="a" style="animation-delay:2.35s"><rect x="132" y="33" width="11" height="11" fill="#22d3ee"/><rect x="132" y="33" width="11" height="3" fill="#67e8f9"/><rect x="132" y="41" width="11" height="3" fill="#0e7490"/></g>
    <g class="b" style="animation-delay:0.00s"><rect x="143" y="55" width="11" height="11" fill="#22d3ee"/><rect x="143" y="55" width="11" height="3" fill="#67e8f9"/><rect x="143" y="63" width="11" height="3" fill="#0e7490"/></g>
    <g class="b" style="animation-delay:0.05s"><rect x="154" y="55" width="11" height="11" fill="#22d3ee"/><rect x="154" y="55" width="11" height="3" fill="#67e8f9"/><rect x="154" y="63" width="11" height="3" fill="#0e7490"/></g>
    <g class="b" style="animation-delay:0.09s"><rect x="165" y="55" width="11" height="11" fill="#22d3ee"/><rect x="165" y="55" width="11" height="3" fill="#67e8f9"/><rect x="165" y="63" width="11" height="3" fill="#0e7490"/></g>
    <g class="b" style="animation-delay:0.14s"><rect x="176" y="55" width="11" height="11" fill="#22d3ee"/><rect x="176" y="55" width="11" height="3" fill="#67e8f9"/><rect x="176" y="63" width="11" height="3" fill="#0e7490"/></g>
    <g class="b" style="animation-delay:0.18s"><rect x="187" y="55" width="11" height="11" fill="#22d3ee"/><rect x="187" y="55" width="11" height="3" fill="#67e8f9"/><rect x="187" y="63" width="11" height="3" fill="#0e7490"/></g>
    <g class="b" style="animation-delay:0.23s"><rect x="198" y="66" width="11" height="11" fill="#22d3ee"/><rect x="198" y="66" width="11" height="3" fill="#67e8f9"/><rect x="198" y="74" width="11" height="3" fill="#0e7490"/></g>
    <g class="b" style="animation-delay:0.28s"><rect x="209" y="66" width="11" height="11" fill="#22d3ee"/><rect x="209" y="66" width="11" height="3" fill="#67e8f9"/><rect x="209" y="74" width="11" height="3" fill="#0e7490"/></g>
    <g class="b" style="animation-delay:0.32s"><rect x="220" y="66" width="11" height="11" fill="#22d3ee"/><rect x="220" y="66" width="11" height="3" fill="#67e8f9"/><rect x="220" y="74" width="11" height="3" fill="#0e7490"/></g>
    <g class="b" style="animation-delay:0.37s"><rect x="231" y="77" width="11" height="11" fill="#22d3ee"/><rect x="231" y="77" width="11" height="3" fill="#67e8f9"/><rect x="231" y="85" width="11" height="3" fill="#0e7490"/></g>
    <g class="b" style="animation-delay:0.42s"><rect x="242" y="77" width="11" height="11" fill="#22d3ee"/><rect x="242" y="77" width="11" height="3" fill="#67e8f9"/><rect x="242" y="85" width="11" height="3" fill="#0e7490"/></g>
    <g class="b" style="animation-delay:0.46s"><rect x="253" y="88" width="11" height="11" fill="#22d3ee"/><rect x="253" y="88" width="11" height="3" fill="#67e8f9"/><rect x="253" y="96" width="11" height="3" fill="#0e7490"/></g>
    <g class="b" style="animation-delay:0.51s"><rect x="253" y="99" width="11" height="11" fill="#22d3ee"/><rect x="253" y="99" width="11" height="3" fill="#67e8f9"/><rect x="253" y="107" width="11" height="3" fill="#0e7490"/></g>
    <g class="b" style="animation-delay:0.55s"><rect x="264" y="110" width="11" height="11" fill="#22d3ee"/><rect x="264" y="110" width="11" height="3" fill="#67e8f9"/><rect x="264" y="118" width="11" height="3" fill="#0e7490"/></g>
    <g class="b" style="animation-delay:0.60s"><rect x="264" y="121" width="11" height="11" fill="#22d3ee"/><rect x="264" y="121" width="11" height="3" fill="#67e8f9"/><rect x="264" y="129" width="11" height="3" fill="#0e7490"/></g>
    <g class="b" style="animation-delay:0.65s"><rect x="264" y="132" width="11" height="11" fill="#22d3ee"/><rect x="264" y="132" width="11" height="3" fill="#67e8f9"/><rect x="264" y="140" width="11" height="3" fill="#0e7490"/></g>
    <g class="b" style="animation-delay:0.69s"><rect x="253" y="143" width="11" height="11" fill="#22d3ee"/><rect x="253" y="143" width="11" height="3" fill="#67e8f9"/><rect x="253" y="151" width="11" height="3" fill="#0e7490"/></g>
    <g class="b" style="animation-delay:0.74s"><rect x="253" y="154" width="11" height="11" fill="#22d3ee"/><rect x="253" y="154" width="11" height="3" fill="#67e8f9"/><rect x="253" y="162" width="11" height="3" fill="#0e7490"/></g>
    <g class="b" style="animation-delay:0.78s"><rect x="242" y="165" width="11" height="11" fill="#22d3ee"/><rect x="242" y="165" width="11" height="3" fill="#67e8f9"/><rect x="242" y="173" width="11" height="3" fill="#0e7490"/></g>
    <g class="b" style="animation-delay:0.83s"><rect x="231" y="165" width="11" height="11" fill="#22d3ee"/><rect x="231" y="165" width="11" height="3" fill="#67e8f9"/><rect x="231" y="173" width="11" height="3" fill="#0e7490"/></g>
    <g class="b" style="animation-delay:0.88s"><rect x="220" y="176" width="11" height="11" fill="#22d3ee"/><rect x="220" y="176" width="11" height="3" fill="#67e8f9"/><rect x="220" y="184" width="11" height="3" fill="#0e7490"/></g>
    <g class="b" style="animation-delay:0.92s"><rect x="209" y="176" width="11" height="11" fill="#22d3ee"/><rect x="209" y="176" width="11" height="3" fill="#67e8f9"/><rect x="209" y="184" width="11" height="3" fill="#0e7490"/></g>
    <g class="b" style="animation-delay:0.97s"><rect x="198" y="176" width="11" height="11" fill="#22d3ee"/><rect x="198" y="176" width="11" height="3" fill="#67e8f9"/><rect x="198" y="184" width="11" height="3" fill="#0e7490"/></g>
    <g class="b" style="animation-delay:1.02s"><rect x="187" y="187" width="11" height="11" fill="#22d3ee"/><rect x="187" y="187" width="11" height="3" fill="#67e8f9"/><rect x="187" y="195" width="11" height="3" fill="#0e7490"/></g>
    <g class="b" style="animation-delay:1.06s"><rect x="176" y="187" width="11" height="11" fill="#22d3ee"/><rect x="176" y="187" width="11" height="3" fill="#67e8f9"/><rect x="176" y="195" width="11" height="3" fill="#0e7490"/></g>
    <g class="b" style="animation-delay:1.11s"><rect x="165" y="187" width="11" height="11" fill="#22d3ee"/><rect x="165" y="187" width="11" height="3" fill="#67e8f9"/><rect x="165" y="195" width="11" height="3" fill="#0e7490"/></g>
    <g class="b" style="animation-delay:1.15s"><rect x="154" y="187" width="11" height="11" fill="#22d3ee"/><rect x="154" y="187" width="11" height="3" fill="#67e8f9"/><rect x="154" y="195" width="11" height="3" fill="#0e7490"/></g>
    <g class="b" style="animation-delay:1.20s"><rect x="143" y="187" width="11" height="11" fill="#22d3ee"/><rect x="143" y="187" width="11" height="3" fill="#67e8f9"/><rect x="143" y="195" width="11" height="3" fill="#0e7490"/></g>
    <g class="b" style="animation-delay:1.25s"><rect x="132" y="187" width="11" height="11" fill="#22d3ee"/><rect x="132" y="187" width="11" height="3" fill="#67e8f9"/><rect x="132" y="195" width="11" height="3" fill="#0e7490"/></g>
    <g class="b" style="animation-delay:1.29s"><rect x="121" y="187" width="11" height="11" fill="#22d3ee"/><rect x="121" y="187" width="11" height="3" fill="#67e8f9"/><rect x="121" y="195" width="11" height="3" fill="#0e7490"/></g>
    <g class="b" style="animation-delay:1.34s"><rect x="110" y="187" width="11" height="11" fill="#22d3ee"/><rect x="110" y="187" width="11" height="3" fill="#67e8f9"/><rect x="110" y="195" width="11" height="3" fill="#0e7490"/></g>
    <g class="b" style="animation-delay:1.38s"><rect x="99" y="187" width="11" height="11" fill="#22d3ee"/><rect x="99" y="187" width="11" height="3" fill="#67e8f9"/><rect x="99" y="195" width="11" height="3" fill="#0e7490"/></g>
    <g class="b" style="animation-delay:1.43s"><rect x="88" y="176" width="11" height="11" fill="#22d3ee"/><rect x="88" y="176" width="11" height="3" fill="#67e8f9"/><rect x="88" y="184" width="11" height="3" fill="#0e7490"/></g>
    <g class="b" style="animation-delay:1.48s"><rect x="77" y="176" width="11" height="11" fill="#22d3ee"/><rect x="77" y="176" width="11" height="3" fill="#67e8f9"/><rect x="77" y="184" width="11" height="3" fill="#0e7490"/></g>
    <g class="b" style="animation-delay:1.52s"><rect x="66" y="176" width="11" height="11" fill="#22d3ee"/><rect x="66" y="176" width="11" height="3" fill="#67e8f9"/><rect x="66" y="184" width="11" height="3" fill="#0e7490"/></g>
    <g class="b" style="animation-delay:1.57s"><rect x="55" y="165" width="11" height="11" fill="#22d3ee"/><rect x="55" y="165" width="11" height="3" fill="#67e8f9"/><rect x="55" y="173" width="11" height="3" fill="#0e7490"/></g>
    <g class="b" style="animation-delay:1.62s"><rect x="44" y="165" width="11" height="11" fill="#22d3ee"/><rect x="44" y="165" width="11" height="3" fill="#67e8f9"/><rect x="44" y="173" width="11" height="3" fill="#0e7490"/></g>
    <g class="b" style="animation-delay:1.66s"><rect x="33" y="154" width="11" height="11" fill="#22d3ee"/><rect x="33" y="154" width="11" height="3" fill="#67e8f9"/><rect x="33" y="162" width="11" height="3" fill="#0e7490"/></g>
    <g class="b" style="animation-delay:1.71s"><rect x="33" y="143" width="11" height="11" fill="#22d3ee"/><rect x="33" y="143" width="11" height="3" fill="#67e8f9"/><rect x="33" y="151" width="11" height="3" fill="#0e7490"/></g>
    <g class="b" style="animation-delay:1.75s"><rect x="22" y="132" width="11" height="11" fill="#22d3ee"/><rect x="22" y="132" width="11" height="3" fill="#67e8f9"/><rect x="22" y="140" width="11" height="3" fill="#0e7490"/></g>
    <g class="b" style="animation-delay:1.80s"><rect x="22" y="121" width="11" height="11" fill="#22d3ee"/><rect x="22" y="121" width="11" height="3" fill="#67e8f9"/><rect x="22" y="129" width="11" height="3" fill="#0e7490"/></g>
    <g class="b" style="animation-delay:1.85s"><rect x="22" y="110" width="11" height="11" fill="#22d3ee"/><rect x="22" y="110" width="11" height="3" fill="#67e8f9"/><rect x="22" y="118" width="11" height="3" fill="#0e7490"/></g>
    <g class="b" style="animation-delay:1.89s"><rect x="33" y="99" width="11" height="11" fill="#22d3ee"/><rect x="33" y="99" width="11" height="3" fill="#67e8f9"/><rect x="33" y="107" width="11" height="3" fill="#0e7490"/></g>
    <g class="b" style="animation-delay:1.94s"><rect x="33" y="88" width="11" height="11" fill="#22d3ee"/><rect x="33" y="88" width="11" height="3" fill="#67e8f9"/><rect x="33" y="96" width="11" height="3" fill="#0e7490"/></g>
    <g class="b" style="animation-delay:1.98s"><rect x="44" y="77" width="11" height="11" fill="#22d3ee"/><rect x="44" y="77" width="11" height="3" fill="#67e8f9"/><rect x="44" y="85" width="11" height="3" fill="#0e7490"/></g>
    <g class="b" style="animation-delay:2.03s"><rect x="55" y="77" width="11" height="11" fill="#22d3ee"/><rect x="55" y="77" width="11" height="3" fill="#67e8f9"/><rect x="55" y="85" width="11" height="3" fill="#0e7490"/></g>
    <g class="b" style="animation-delay:2.08s"><rect x="66" y="66" width="11" height="11" fill="#22d3ee"/><rect x="66" y="66" width="11" height="3" fill="#67e8f9"/><rect x="66" y="74" width="11" height="3" fill="#0e7490"/></g>
    <g class="b" style="animation-delay:2.12s"><rect x="77" y="66" width="11" height="11" fill="#22d3ee"/><rect x="77" y="66" width="11" height="3" fill="#67e8f9"/><rect x="77" y="74" width="11" height="3" fill="#0e7490"/></g>
    <g class="b" style="animation-delay:2.17s"><rect x="88" y="66" width="11" height="11" fill="#22d3ee"/><rect x="88" y="66" width="11" height="3" fill="#67e8f9"/><rect x="88" y="74" width="11" height="3" fill="#0e7490"/></g>
    <g class="b" style="animation-delay:2.22s"><rect x="99" y="55" width="11" height="11" fill="#22d3ee"/><rect x="99" y="55" width="11" height="3" fill="#67e8f9"/><rect x="99" y="63" width="11" height="3" fill="#0e7490"/></g>
    <g class="b" style="animation-delay:2.26s"><rect x="110" y="55" width="11" height="11" fill="#22d3ee"/><rect x="110" y="55" width="11" height="3" fill="#67e8f9"/><rect x="110" y="63" width="11" height="3" fill="#0e7490"/></g>
    <g class="b" style="animation-delay:2.31s"><rect x="121" y="55" width="11" height="11" fill="#22d3ee"/><rect x="121" y="55" width="11" height="3" fill="#67e8f9"/><rect x="121" y="63" width="11" height="3" fill="#0e7490"/></g>
    <g class="b" style="animation-delay:2.35s"><rect x="132" y="55" width="11" height="11" fill="#22d3ee"/><rect x="132" y="55" width="11" height="3" fill="#67e8f9"/><rect x="132" y="63" width="11" height="3" fill="#0e7490"/></g>
    <g class="a" style="animation-delay:2.5s" opacity="0.55">
        <rect x="55" y="21" width="187" height="2" fill="#a5f3fc"/>
        <rect x="55" y="17" width="2" height="10" fill="#a5f3fc"/>
        <rect x="240" y="17" width="2" height="10" fill="#a5f3fc"/>
        <rect x="254" y="33" width="2" height="187" fill="#a5f3fc"/>
        <rect x="250" y="33" width="10" height="2" fill="#a5f3fc"/>
        <rect x="250" y="218" width="10" height="2" fill="#a5f3fc"/>
    </g>
    <g class="b" style="animation-delay:2.5s" opacity="0.55">
        <rect x="22" y="43" width="253" height="2" fill="#a5f3fc"/>
        <rect x="22" y="39" width="2" height="10" fill="#a5f3fc"/>
        <rect x="273" y="39" width="2" height="10" fill="#a5f3fc"/>
        <rect x="287" y="55" width="2" height="143" fill="#a5f3fc"/>
        <rect x="283" y="55" width="10" height="2" fill="#a5f3fc"/>
        <rect x="283" y="196" width="10" height="2" fill="#a5f3fc"/>
    </g>
    <g class="hand" opacity="0">
        <rect x="5.5" y="-16.5" width="286" height="286" fill="none"/>
        <rect x="147.5" y="-8.5" width="2" height="135" fill="#a5f3fc"/>
        <rect x="144.5" y="-10.5" width="8" height="8" fill="#ecfeff"/>
    </g>
    <g class="core">
        <rect x="143.5" y="121.5" width="10" height="10" fill="#a5f3fc"/>
        <rect x="143.5" y="121.5" width="5" height="5" fill="#ecfeff"/>
    </g>
</svg>
